<?xml version="1.0" encoding="UTF-8"?>
<svg width="60px" height="60px" viewBox="0 0 60 60" version="1.1" xmlns="http://www.w3.org/2000/svg" xmlns:xlink="http://www.w3.org/1999/xlink">
    <!-- Generator: Sketch 56.2 (81672) - https://sketch.com -->
    <title>pause_blue_hover_dark</title>
    <desc>Created with Sketch.</desc>
    <defs>
        <linearGradient x1="50%" y1="0%" x2="50%" y2="95.6533653%" id="linearGradient-1">
            <stop stop-color="#0966E4" offset="0%"></stop>
            <stop stop-color="#0063EA" offset="100%"></stop>
        </linearGradient>
        <circle id="path-2" cx="30" cy="30" r="20"></circle>
        <filter x="-20.0%" y="-10.0%" width="140.0%" height="140.0%" filterUnits="objectBoundingBox" id="filter-3">
            <feOffset dx="0" dy="4" in="SourceAlpha" result="shadowOffsetOuter1"></feOffset>
            <feGaussianBlur stdDeviation="2" in="shadowOffsetOuter1" result="shadowBlurOuter1"></feGaussianBlur>
            <feComposite in="shadowBlurOuter1" in2="SourceAlpha" operator="out" result="shadowBlurOuter1"></feComposite>
            <feColorMatrix values="0 0 0 0 0   0 0 0 0 0.146088287   0 0 0 0 1  0 0 0 0.3 0" type="matrix" in="shadowBlurOuter1"></feColorMatrix>
        </filter>
    </defs>
    <g id="页面-1" stroke="none" stroke-width="1" fill="none" fill-rule="evenodd">
        <g id="按钮状态" transform="translate(-401.000000, -277.000000)">
            <g id="pause_blue_normal" transform="translate(401.000000, 277.000000)">
                <g id="Oval">
                    <use fill="black" fill-opacity="1" filter="url(#filter-3)" xlink:href="#path-2"></use>
                    <circle stroke-opacity="0.03" stroke="#000000" stroke-width="1" stroke-linejoin="square" fill="url(#linearGradient-1)" fill-rule="evenodd" cx="30" cy="30" r="19.5"></circle>
                </g>
                <path d="M27,25 C28.1045695,25 29,25.8954305 29,27 L29,33 C29,34.1045695 28.1045695,35 27,35 C25.8954305,35 25,34.1045695 25,33 L25,27 C25,25.8954305 25.8954305,25 27,25 Z M33,25 C34.1045695,25 35,25.8954305 35,27 L35,33 C35,34.1045695 34.1045695,35 33,35 C31.8954305,35 31,34.1045695 31,33 L31,27 C31,25.8954305 31.8954305,25 33,25 Z" id="Combined-Shape" fill="#FFFFFF"></path>
            </g>
        </g>
    </g>
</svg>