<?xml version="1.0" encoding="UTF-8"?>
<svg width="60px" height="60px" viewBox="0 0 60 60" version="1.1" xmlns="http://www.w3.org/2000/svg" xmlns:xlink="http://www.w3.org/1999/xlink">
    <!-- Generator: Sketch 56.2 (81672) - https://sketch.com -->
    <title>pause_red_hover_dark</title>
    <desc>Created with Sketch.</desc>
    <defs>
        <linearGradient x1="50%" y1="0%" x2="50%" y2="99.0471917%" id="linearGradient-1">
            <stop stop-color="#FF2F2F" offset="0%"></stop>
            <stop stop-color="#F21212" offset="100%"></stop>
        </linearGradient>
        <circle id="path-2" cx="30" cy="30" r="20"></circle>
        <filter x="-17.5%" y="-12.5%" width="135.0%" height="135.0%" filterUnits="objectBoundingBox" id="filter-3">
            <feOffset dx="0" dy="2" in="SourceAlpha" result="shadowOffsetOuter1"></feOffset>
            <feGaussianBlur stdDeviation="2" in="shadowOffsetOuter1" result="shadowBlurOuter1"></feGaussianBlur>
            <feColorMatrix values="0 0 0 0 0.758689991   0 0 0 0 0.0373706865   0 0 0 0 0.0373706865  0 0 0 0.5 0" type="matrix" in="shadowBlurOuter1"></feColorMatrix>
        </filter>
    </defs>
    <g id="页面-1" stroke="none" stroke-width="1" fill="none" fill-rule="evenodd">
        <g id="按钮状态" transform="translate(-480.000000, -277.000000)">
            <g id="pause_red_normal" transform="translate(480.000000, 277.000000)">
                <g id="Oval">
                    <use fill="black" fill-opacity="1" filter="url(#filter-3)" xlink:href="#path-2"></use>
                    <use fill="url(#linearGradient-1)" fill-rule="evenodd" xlink:href="#path-2"></use>
                </g>
                <path d="M27,25 C28.1045695,25 29,25.8954305 29,27 L29,33 C29,34.1045695 28.1045695,35 27,35 C25.8954305,35 25,34.1045695 25,33 L25,27 C25,25.8954305 25.8954305,25 27,25 Z M33,25 C34.1045695,25 35,25.8954305 35,27 L35,33 C35,34.1045695 34.1045695,35 33,35 C31.8954305,35 31,34.1045695 31,33 L31,27 C31,25.8954305 31.8954305,25 33,25 Z" id="Combined-Shape" fill="#FFFFFF"></path>
            </g>
        </g>
    </g>
</svg>