<?xml version="1.0" encoding="UTF-8"?>
<svg width="24px" height="24px" viewBox="0 0 24 24" version="1.1" xmlns="http://www.w3.org/2000/svg" xmlns:xlink="http://www.w3.org/1999/xlink">
    <title>D/audio_file_playing_pause/Normal</title>
    <g id="D/audio_file_playing_pause/Normal" stroke="none" stroke-width="1" fill="none" fill-rule="evenodd">
        <g id="ICON/audio/file/normal" fill="#000000" fill-rule="nonzero">
            <path d="M12,0 C18.627417,0 24,5.372583 24,12 C24,18.627417 18.627417,24 12,24 C5.372583,24 0,18.627417 0,12 C0,5.372583 5.372583,0 12,0 Z M12,1 C5.92486775,1 1,5.92486775 1,12 C1,18.0751322 5.92486775,23 12,23 C18.0751322,23 23,18.0751322 23,12 C23,5.92486775 18.0751322,1 12,1 Z M9.33333333,7 C9.70152317,7 10,7.29847683 10,7.66666667 L10,16.3333333 C10,16.7015232 9.70152317,17 9.33333333,17 L8.66666667,17 C8.29847683,17 8,16.7015232 8,16.3333333 L8,7.66666667 C8,7.29847683 8.29847683,7 8.66666667,7 L9.33333333,7 Z M15.3333333,7 C15.7015232,7 16,7.29847683 16,7.66666667 L16,16.3333333 C16,16.7015232 15.7015232,17 15.3333333,17 L14.6666667,17 C14.2984768,17 14,16.7015232 14,16.3333333 L14,7.66666667 C14,7.29847683 14.2984768,7 14.6666667,7 L15.3333333,7 Z" id="形状结合"></path>
        </g>
    </g>
</svg>