<?xml version="1.0" encoding="UTF-8"?>
<svg width="156px" height="156px" viewBox="0 0 156 156" version="1.1" xmlns="http://www.w3.org/2000/svg" xmlns:xlink="http://www.w3.org/1999/xlink">
    <title>notes</title>
    <defs>
        <filter x="-13.8%" y="-13.8%" width="127.6%" height="127.6%" filterUnits="objectBoundingBox" id="filter-1">
            <feOffset dx="0" dy="4" in="SourceAlpha" result="shadowOffsetOuter1"></feOffset>
            <feGaussianBlur stdDeviation="3.5" in="shadowOffsetOuter1" result="shadowBlurOuter1"></feGaussianBlur>
            <feColorMatrix values="0 0 0 0 0   0 0 0 0 0   0 0 0 0 0  0 0 0 0.1 0" type="matrix" in="shadowBlurOuter1" result="shadowMatrixOuter1"></feColorMatrix>
            <feMerge>
                <feMergeNode in="shadowMatrixOuter1"></feMergeNode>
                <feMergeNode in="SourceGraphic"></feMergeNode>
            </feMerge>
        </filter>
        <linearGradient x1="50%" y1="0%" x2="50%" y2="100%" id="linearGradient-2">
            <stop stop-color="#C3FFBF" stop-opacity="0.305015297" offset="0%"></stop>
            <stop stop-color="#83E991" stop-opacity="0.778791521" offset="100%"></stop>
        </linearGradient>
        <linearGradient x1="50%" y1="0%" x2="50%" y2="100%" id="linearGradient-3">
            <stop stop-color="#C3FFBF" stop-opacity="0.305015297" offset="0%"></stop>
            <stop stop-color="#83E991" stop-opacity="0.778791521" offset="100%"></stop>
        </linearGradient>
        <linearGradient x1="50%" y1="0%" x2="50%" y2="100%" id="linearGradient-4">
            <stop stop-color="#C3FFBF" stop-opacity="0.305015297" offset="0%"></stop>
            <stop stop-color="#83E991" stop-opacity="0.778791521" offset="100%"></stop>
        </linearGradient>
        <linearGradient x1="50%" y1="0%" x2="50%" y2="100%" id="linearGradient-5">
            <stop stop-color="#C3FFBF" stop-opacity="0.305015297" offset="0%"></stop>
            <stop stop-color="#83E991" stop-opacity="0.778791521" offset="100%"></stop>
        </linearGradient>
        <linearGradient x1="50%" y1="0%" x2="50%" y2="100%" id="linearGradient-6">
            <stop stop-color="#C3FFBF" stop-opacity="0.305015297" offset="0%"></stop>
            <stop stop-color="#83E991" stop-opacity="0.778791521" offset="100%"></stop>
        </linearGradient>
        <linearGradient x1="50%" y1="0%" x2="50%" y2="100%" id="linearGradient-7">
            <stop stop-color="#C3FFBF" stop-opacity="0.305015297" offset="0%"></stop>
            <stop stop-color="#83E991" stop-opacity="0.778791521" offset="100%"></stop>
        </linearGradient>
        <linearGradient x1="84.4802726%" y1="30.0374763%" x2="44.517753%" y2="78.6659848%" id="linearGradient-8">
            <stop stop-color="#FFFFFF" offset="0%"></stop>
            <stop stop-color="#D6DDF6" offset="100%"></stop>
        </linearGradient>
        <linearGradient x1="80.4721539%" y1="49.7755257%" x2="50%" y2="50.255102%" id="linearGradient-9">
            <stop stop-color="#000000" stop-opacity="0.0351835664" offset="0%"></stop>
            <stop stop-color="#000000" stop-opacity="0.08" offset="100%"></stop>
        </linearGradient>
        <linearGradient x1="80.4721539%" y1="46.4084118%" x2="50%" y2="54.0816327%" id="linearGradient-10">
            <stop stop-color="#000000" stop-opacity="0.0351835664" offset="0%"></stop>
            <stop stop-color="#000000" stop-opacity="0.08" offset="100%"></stop>
        </linearGradient>
        <linearGradient x1="80.4721539%" y1="49.8477614%" x2="50%" y2="50.1730104%" id="linearGradient-11">
            <stop stop-color="#000000" stop-opacity="0.0351835664" offset="0%"></stop>
            <stop stop-color="#000000" stop-opacity="0.08" offset="100%"></stop>
        </linearGradient>
        <linearGradient x1="80.4721539%" y1="49.6363888%" x2="50%" y2="50.4132231%" id="linearGradient-12">
            <stop stop-color="#000000" stop-opacity="0.0351835664" offset="0%"></stop>
            <stop stop-color="#000000" stop-opacity="0.08" offset="100%"></stop>
        </linearGradient>
        <linearGradient x1="80.4721539%" y1="44.1822208%" x2="50%" y2="56.6115702%" id="linearGradient-13">
            <stop stop-color="#000000" stop-opacity="0.0351835664" offset="0%"></stop>
            <stop stop-color="#000000" stop-opacity="0.08" offset="100%"></stop>
        </linearGradient>
        <linearGradient x1="80.4721539%" y1="48.2401218%" x2="50%" y2="52%" id="linearGradient-14">
            <stop stop-color="#000000" stop-opacity="0.0351835664" offset="0%"></stop>
            <stop stop-color="#000000" stop-opacity="0.08" offset="100%"></stop>
        </linearGradient>
        <linearGradient x1="80.4721539%" y1="49.91683%" x2="50%" y2="50.094518%" id="linearGradient-15">
            <stop stop-color="#000000" stop-opacity="0.0351835664" offset="0%"></stop>
            <stop stop-color="#000000" stop-opacity="0.08" offset="100%"></stop>
        </linearGradient>
        <linearGradient x1="80.4721539%" y1="49.9511145%" x2="50%" y2="50.0555556%" id="linearGradient-16">
            <stop stop-color="#000000" stop-opacity="0.0351835664" offset="0%"></stop>
            <stop stop-color="#000000" stop-opacity="0.08" offset="100%"></stop>
        </linearGradient>
        <radialGradient cx="52.3239218%" cy="53.481434%" fx="52.3239218%" fy="53.481434%" r="63.5927982%" gradientTransform="translate(0.523239,0.534814),scale(0.882353,1.000000),rotate(121.803879),scale(1.000000,1.264710),translate(-0.523239,-0.534814)" id="radialGradient-17">
            <stop stop-color="#000000" offset="0%"></stop>
            <stop stop-color="#000000" stop-opacity="0.148218969" offset="100%"></stop>
        </radialGradient>
        <linearGradient x1="69.6592997%" y1="71.0965544%" x2="56.9476724%" y2="57.7013487%" id="linearGradient-18">
            <stop stop-color="#C6C6C6" offset="0%"></stop>
            <stop stop-color="#E7E7E7" offset="53.0517663%"></stop>
            <stop stop-color="#F4F4F4" offset="100%"></stop>
        </linearGradient>
        <path d="M125.368421,8.61904762 C125.368421,8.61904762 122.66397,19.6120268 120.313864,23.372687 C116.592984,29.3268711 112.370988,27.8939636 109.001284,32.8911641 C105.631579,37.8883645 106.898178,41.5228478 99.1328626,48.1207274 C94.9714057,51.656552 85.8947368,53.3558897 85.8947368,53.3558897 C110.066824,53.3558897 125.368421,25.8379041 125.368421,8.61904762 Z" id="path-19"></path>
        <filter x="-10.1%" y="-4.5%" width="120.3%" height="117.9%" filterUnits="objectBoundingBox" id="filter-20">
            <feOffset dx="0" dy="2" in="SourceAlpha" result="shadowOffsetOuter1"></feOffset>
            <feGaussianBlur stdDeviation="1" in="shadowOffsetOuter1" result="shadowBlurOuter1"></feGaussianBlur>
            <feColorMatrix values="0 0 0 0 0   0 0 0 0 0   0 0 0 0 0  0 0 0 0.05 0" type="matrix" in="shadowBlurOuter1"></feColorMatrix>
        </filter>
        <linearGradient x1="80.4721539%" y1="48.2401218%" x2="50%" y2="52%" id="linearGradient-21">
            <stop stop-color="#000000" stop-opacity="0.0351835664" offset="0%"></stop>
            <stop stop-color="#000000" stop-opacity="0.08" offset="100%"></stop>
        </linearGradient>
        <linearGradient x1="50%" y1="0%" x2="50%" y2="100%" id="linearGradient-22">
            <stop stop-color="#FD5E5E" offset="0%"></stop>
            <stop stop-color="#ED5656" offset="100%"></stop>
        </linearGradient>
        <circle id="path-23" cx="13.1578947" cy="13.1578947" r="13.1578947"></circle>
        <filter x="-47.5%" y="-32.3%" width="195.0%" height="195.0%" filterUnits="objectBoundingBox" id="filter-24">
            <feOffset dx="0" dy="4" in="SourceAlpha" result="shadowOffsetOuter1"></feOffset>
            <feGaussianBlur stdDeviation="3.5" in="shadowOffsetOuter1" result="shadowBlurOuter1"></feGaussianBlur>
            <feColorMatrix values="0 0 0 0 0.97254902   0 0 0 0 0.17254902   0 0 0 0 0.277440324  0 0 0 0.4 0" type="matrix" in="shadowBlurOuter1"></feColorMatrix>
        </filter>
    </defs>
    <g id="Q4新需求" stroke="none" stroke-width="1" fill="none" fill-rule="evenodd">
        <g id="3多个笔记拖拽4455" transform="translate(-1194.000000, -390.000000)">
            <g id="notes-icon" filter="url(#filter-1)" transform="translate(1194.000000, 390.000000)">
                <rect id="矩形备份-12" fill="url(#linearGradient-2)" opacity="0.359375" x="46.4210526" y="95.4611529" width="56.8421053" height="3.42105263" rx="1.71052632"></rect>
                <rect id="矩形备份-14" fill="url(#linearGradient-3)" opacity="0.359375" x="46.4210526" y="126.250627" width="10.6578947" height="3.42105263" rx="1.71052632"></rect>
                <rect id="矩形备份-19" fill="url(#linearGradient-4)" opacity="0.359375" x="46.4210526" y="115.987469" width="49.7368421" height="3.42105263" rx="1.71052632"></rect>
                <rect id="矩形备份-20" fill="url(#linearGradient-5)" opacity="0.359375" x="46.4210526" y="105.724311" width="17.7631579" height="3.42105263" rx="1.71052632"></rect>
                <rect id="矩形备份-16" fill="url(#linearGradient-6)" opacity="0.359375" x="71.2894737" y="105.724311" width="46.1842105" height="3.42105263" rx="1.71052632"></rect>
                <rect id="矩形备份-17" fill="url(#linearGradient-7)" opacity="0.359375" x="64.1842105" y="126.250627" width="24.8684211" height="3.42105263" rx="1.71052632"></rect>
                <path d="M45.8571429,11.2506266 L94.4473684,11.2506266 L94.4473684,11.2506266 C100.383964,13.5049409 107.036011,17.9665259 114.403509,24.6353816 C121.421053,30.9874687 125.953216,38.9275776 128,48.4557082 L128,90.197995 L28,90.197995 L28,29.1077694 C28,19.2455417 35.9949152,11.2506266 45.8571429,11.2506266 Z" id="矩形备份-5" fill="url(#linearGradient-8)"></path>
                <path d="M28,28.8571429 C28,18.9949152 35.9949152,11 45.8571429,11 L110.142857,11 C120.005085,11 128,18.9949152 128,28.8571429 L128,127.142857 C128,137.005085 120.005085,145 110.142857,145 L45.8571429,145 C35.9949152,145 28,137.005085 28,127.142857 L28,28.8571429 Z" id="形状结合备份" stroke-opacity="0.1" stroke="#979797" fill="#FFFFFF" transform="translate(78.000000, 78.000000) rotate(-360.000000) translate(-78.000000, -78.000000) "></path>
                <rect id="矩形" fill="url(#linearGradient-9)" x="38.5263158" y="74.4085213" width="36.8421053" height="2.63157895" rx="1.31578947"></rect>
                <rect id="矩形备份" fill="url(#linearGradient-9)" x="38.5263158" y="82.3032581" width="36.8421053" height="2.63157895" rx="1.31578947"></rect>
                <rect id="矩形" fill="url(#linearGradient-9)" x="80.6315789" y="66.5137845" width="36.8421053" height="2.63157895" rx="1.31578947"></rect>
                <rect id="矩形备份-13" fill="url(#linearGradient-9)" x="38.5263158" y="66.5137845" width="36.8421053" height="2.63157895" rx="1.31578947"></rect>
                <rect id="矩形备份-6" fill="url(#linearGradient-10)" x="80.6315789" y="74.4085213" width="36.8421053" height="10.5263158" rx="1.31578947"></rect>
                <rect id="矩形备份-18" fill="url(#linearGradient-11)" x="72.7368421" y="98.0927318" width="44.7368421" height="2.63157895" rx="1.31578947"></rect>
                <rect id="矩形备份-23" fill="url(#linearGradient-12)" x="72.7368421" y="105.987469" width="28.9473684" height="2.63157895" rx="1.31578947"></rect>
                <rect id="矩形备份-21" fill="url(#linearGradient-13)" x="38.5263158" y="98.0927318" width="28.9473684" height="10.5263158" rx="2.63157895"></rect>
                <rect id="矩形备份-4" fill="url(#linearGradient-14)" x="38.5263158" y="90.197995" width="13.1578947" height="2.63157895" rx="1.31578947"></rect>
                <rect id="矩形备份-8" fill="url(#linearGradient-15)" x="56.9473684" y="90.197995" width="60.5263158" height="2.63157895" rx="1.31578947"></rect>
                <rect id="矩形备份-9" fill="url(#linearGradient-16)" x="38.5263158" y="113.882206" width="78.9473684" height="2.63157895" rx="1.31578947"></rect>
                <rect id="矩形备份-11" fill="url(#linearGradient-16)" x="38.5263158" y="124.408521" width="78.9473684" height="2.63157895" rx="1.31578947"></rect>
                <path d="M83.2631579,11.2506266 L110.142857,11.2506266 C120.005085,11.2506266 128,19.2455417 128,29.1077694 L128,46.9649123 L128,46.9649123 L128,50.7243108 C126.601974,39.2894737 121.009868,29.8909774 111.223684,22.5288221 C102.686179,16.1060489 93.3660034,12.3466504 83.2631579,11.2506266 Z" id="路径" fill-opacity="0.19" fill="url(#radialGradient-17)"></path>
                <g id="路径-11" transform="translate(105.631579, 30.987469) rotate(-90.000000) translate(-105.631579, -30.987469) ">
                    <use fill="black" fill-opacity="1" filter="url(#filter-20)" xlink:href="#path-19"></use>
                    <use fill="url(#linearGradient-18)" fill-rule="evenodd" xlink:href="#path-19"></use>
                </g>
                <rect id="矩形" fill="url(#linearGradient-21)" x="38.5263158" y="40.197995" width="78.9473684" height="15.7894737" rx="3.57142857"></rect>
                <g id="编组-4" transform="translate(35.894737, 34.934837)">
                    <g id="Oval">
                        <use fill="black" fill-opacity="1" filter="url(#filter-24)" xlink:href="#path-23"></use>
                        <use fill="url(#linearGradient-22)" fill-rule="evenodd" xlink:href="#path-23"></use>
                    </g>
                    <path d="M16.2324124,11.6988012 C17.441165,12.5046363 17.4371413,13.8138356 16.2324124,14.6169883 L12.7149561,16.9619591 C11.5062034,17.7677942 10.5263158,17.2340122 10.5263158,15.7919719 L10.5263158,10.5238176 C10.5263158,9.07181638 11.5102271,8.55067772 12.7149561,9.35383036 L16.2324124,11.6988012 Z" id="Triangle" fill="#FFFFFF"></path>
                </g>
            </g>
        </g>
    </g>
</svg>