<?xml version="1.0" encoding="UTF-8"?>
<svg width="24px" height="24px" viewBox="0 0 24 24" version="1.1" xmlns="http://www.w3.org/2000/svg" xmlns:xlink="http://www.w3.org/1999/xlink">
    <title>D/playba_play/Normal</title>
    <g id="D/playba_play/Normal" stroke="none" stroke-width="1" fill="none" fill-rule="evenodd">
        <g id="DTK/按钮/工具按钮/IconButton-Light" transform="translate(4, 4)" fill="#000000" fill-rule="nonzero">
            <g id="ICON" transform="translate(2, 1)">
                <path d="M2.9255463,0.410984823 L10.7901898,5.21364818 C12.4006136,6.19707786 12.4059244,7.80003355 10.7901898,8.7867063 L2.9255463,13.5893697 C1.31512243,14.5727993 8.8817842e-16,13.730019 8.8817842e-16,11.6997235 L8.8817842e-16,2.30063101 C8.8817842e-16,0.276493293 1.3098117,-0.575687931 2.9255463,0.410984823 Z M1,2.30063101 L1,11.6997235 C1,12.9795719 1.48920056,13.2947827 2.40437346,12.7359185 L10.2690169,7.93325515 C11.2440074,7.33786249 11.243314,6.66206857 10.2690169,6.06709934 L2.40437346,1.26443597 C1.48854001,0.705168436 1,1.0214327 1,2.30063101 Z" id="play"></path>
            </g>
        </g>
    </g>
</svg>