<?xml version="1.0" encoding="UTF-8"?>
<svg width="24px" height="24px" viewBox="0 0 24 24" version="1.1" xmlns="http://www.w3.org/2000/svg" xmlns:xlink="http://www.w3.org/1999/xlink">
    <title>新建</title>
    <g id="语音记事本" stroke="none" stroke-width="1" fill="none" fill-rule="evenodd">
        <g id="画框" transform="translate(-65, -15)" fill="#000000">
            <g id="新建" transform="translate(61, 11)">
                <rect id="DTK-/-Button-/ToolButton-/-Light-Normal" fill-opacity="0" x="4" y="4" width="24" height="24" rx="6"></rect>
                <path d="M19.5,14 C21.9852814,14 24,16.0147186 24,18.5 C24,20.9852814 21.9852814,23 19.5,23 C17.0147186,23 15,20.9852814 15,18.5 C15,16.0147186 17.0147186,14 19.5,14 Z M20,8 C21.6568542,8 23,9.34314575 23,11 L23,14 L22,14 L22,11 C22,9.8954305 21.1045695,9 20,9 L12,9 C10.8954305,9 10,9.8954305 10,11 L10,19 C10,20.1045695 10.8954305,21 12,21 L15,20.999 L15,22 L12,22 C10.3431458,22 9,20.6568542 9,19 L9,11 C9,9.34314575 10.3431458,8 12,8 L20,8 Z M19.5,15 C19.2238576,15 19,15.2238576 19,15.5 L19,17.999 L16.5,18 C16.2238576,18 16,18.2238576 16,18.5 C16,18.7761424 16.2238576,19 16.5,19 L19,18.999 L19,21.5 C19,21.7761424 19.2238576,22 19.5,22 C19.7761424,22 20,21.7761424 20,21.5 L20,18.999 L22.5,19 C22.7761424,19 23,18.7761424 23,18.5 C23,18.2238576 22.7761424,18 22.5,18 L20,17.999 L20,15.5 C20,15.2238576 19.7761424,15 19.5,15 Z" id="形状结合" fill-opacity="0.7" fill-rule="nonzero"></path>
            </g>
        </g>
    </g>
</svg>