<?xml version="1.0" encoding="UTF-8"?>
<svg width="24px" height="25px" viewBox="0 0 24 25" version="1.1" xmlns="http://www.w3.org/2000/svg" xmlns:xlink="http://www.w3.org/1999/xlink">
    <title>apps/128/deepin-voice-note</title>
    <defs>
        <filter x="-10.7%" y="-4.8%" width="121.3%" height="119.4%" filterUnits="objectBoundingBox" id="filter-1">
            <feOffset dx="0" dy="1" in="SourceAlpha" result="shadowOffsetOuter1"></feOffset>
            <feGaussianBlur stdDeviation="0.5" in="shadowOffsetOuter1" result="shadowBlurOuter1"></feGaussianBlur>
            <feColorMatrix values="0 0 0 0 0   0 0 0 0 0   0 0 0 0 0  0 0 0 0.20036604 0" type="matrix" in="shadowBlurOuter1" result="shadowMatrixOuter1"></feColorMatrix>
            <feMerge>
                <feMergeNode in="shadowMatrixOuter1"></feMergeNode>
                <feMergeNode in="SourceGraphic"></feMergeNode>
            </feMerge>
        </filter>
        <linearGradient x1="50%" y1="2.37536127%" x2="50%" y2="97.2180704%" id="linearGradient-2">
            <stop stop-color="#E9E9E9" offset="0%"></stop>
            <stop stop-color="#EBF3FF" offset="100%"></stop>
        </linearGradient>
        <path d="M3.84702962,-1.33226763e-15 L14.9029704,1.13354267e-15 C16.2406664,-6.58620937e-16 16.7257473,0.139281929 17.214789,0.400824274 C17.7038306,0.66236662 18.0876334,1.04616938 18.3491757,1.53521105 C18.6107181,2.02425271 18.75,2.50933361 18.75,3.84702962 L18.75,16.7779704 C18.75,18.1156664 18.6107181,18.6007473 18.3491757,19.089789 C18.0876334,19.5788306 17.7038306,19.9626334 17.214789,20.2241757 C16.7257473,20.4857181 16.2406664,20.625 14.9029704,20.625 L3.84702962,20.625 C2.50933361,20.625 2.02425271,20.4857181 1.53521105,20.2241757 C1.04616938,19.9626334 0.66236662,19.5788306 0.400824274,19.089789 C0.139281929,18.6007473 5.75813397e-16,18.1156664 2.17380675e-16,16.7779704 L0,3.84702962 C0,2.50933361 0.139281929,2.02425271 0.400824274,1.53521105 C0.66236662,1.04616938 1.04616938,0.66236662 1.53521105,0.400824274 C2.02425271,0.139281929 2.50933361,-1.33226763e-15 3.84702962,-1.33226763e-15 Z" id="path-3"></path>
        <filter x="-8.0%" y="-7.3%" width="116.0%" height="114.5%" filterUnits="objectBoundingBox" id="filter-4">
            <feGaussianBlur stdDeviation="1" in="SourceAlpha" result="shadowBlurInner1"></feGaussianBlur>
            <feOffset dx="0" dy="-1" in="shadowBlurInner1" result="shadowOffsetInner1"></feOffset>
            <feComposite in="shadowOffsetInner1" in2="SourceAlpha" operator="arithmetic" k2="-1" k3="1" result="shadowInnerInner1"></feComposite>
            <feColorMatrix values="0 0 0 0 0   0 0 0 0 0.108032992   0 0 0 0 0.378311821  0 0 0 0.2 0" type="matrix" in="shadowInnerInner1"></feColorMatrix>
        </filter>
        <linearGradient x1="40.7675756%" y1="0%" x2="40.7675756%" y2="100%" id="linearGradient-5">
            <stop stop-color="#FFFFFF" stop-opacity="0.2" offset="0%"></stop>
            <stop stop-color="#000000" stop-opacity="0.2" offset="100%"></stop>
        </linearGradient>
        <linearGradient x1="50%" y1="0%" x2="50%" y2="100%" id="linearGradient-6">
            <stop stop-color="#FD5E5E" offset="0%"></stop>
            <stop stop-color="#ED5656" offset="100%"></stop>
        </linearGradient>
        <linearGradient x1="50%" y1="0%" x2="50%" y2="100%" id="linearGradient-7">
            <stop stop-color="#E9ECEF" offset="0%"></stop>
            <stop stop-color="#EBF1F9" offset="100%"></stop>
        </linearGradient>
        <linearGradient x1="50%" y1="41.4361479%" x2="50%" y2="100%" id="linearGradient-8">
            <stop stop-color="#FFFFFF" offset="0%"></stop>
            <stop stop-color="#FFFFFF" offset="34.0878783%"></stop>
            <stop stop-color="#F3F3F3" offset="62.7017222%"></stop>
            <stop stop-color="#FFFFFF" offset="100%"></stop>
        </linearGradient>
    </defs>
    <g id="apps/128/deepin-voice-note" stroke="none" fill="none">
        <g id="Group-2" filter="url(#filter-1)" stroke-width="1" fill-rule="evenodd" transform="translate(2.625, 1.6875)">
            <g id="Rectangle-3">
                <use fill="url(#linearGradient-2)" fill-rule="evenodd" xlink:href="#path-3"></use>
                <use fill="black" fill-opacity="1" filter="url(#filter-4)" xlink:href="#path-3"></use>
            </g>
            <path d="M14.9029704,-1.33226763e-15 C16.2406664,-1.33226763e-15 16.7257473,0.139281929 17.214789,0.400824274 C17.7038306,0.66236662 18.0876334,1.04616938 18.3491757,1.53521105 C18.6107181,2.02425271 18.75,2.50933361 18.75,3.84702962 L18.75,16.7779704 C18.75,18.1156664 18.6107181,18.6007473 18.3491757,19.089789 C18.0876334,19.5788306 17.7038306,19.9626334 17.214789,20.2241757 C16.7257473,20.4857181 16.2406664,20.625 14.9029704,20.625 L3.84702962,20.625 C2.50933361,20.625 2.02425271,20.4857181 1.53521105,20.2241757 C1.04616938,19.9626334 0.66236662,19.5788306 0.400824274,19.089789 C0.139281929,18.6007473 0,18.1156664 0,16.7779704 L0,3.84702962 C0,2.50933361 0.139281929,2.02425271 0.400824274,1.53521105 C0.66236662,1.04616938 1.04616938,0.66236662 1.53521105,0.400824274 C2.02425271,0.139281929 2.50933361,-1.33226763e-15 3.84702962,-1.33226763e-15 L14.9029704,-1.33226763e-15 Z M14.9029704,0.1875 L3.84702962,0.1875 C2.65572956,0.1875 2.14853885,0.285443044 1.62363583,0.566164249 C1.16726951,0.810231632 0.810231632,1.16726951 0.566164249,1.62363583 C0.292289902,2.13573634 0.192386441,2.63097801 0.187676025,3.76107204 L0.187676025,16.863928 C0.192386441,17.994022 0.292289902,18.4892637 0.566164249,19.0013642 C0.810231632,19.4577305 1.16726951,19.8147684 1.62363583,20.0588358 C2.14853885,20.339557 2.65572956,20.4375 3.84702962,20.4375 L14.9029704,20.4375 C16.0942704,20.4375 16.6014611,20.339557 17.1263642,20.0588358 C17.5827305,19.8147684 17.9397684,19.4577305 18.1838358,19.0013642 C18.464557,18.4764611 18.5625,17.9692704 18.5625,16.7779704 L18.5625,3.84702962 C18.5625,2.65572956 18.464557,2.14853885 18.1838358,1.62363583 C17.9397684,1.16726951 17.5827305,0.810231632 17.1263642,0.566164249 C16.6014611,0.285443044 16.0942704,0.1875 14.9029704,0.1875 Z" id="Rectangle-3" fill="url(#linearGradient-5)" fill-rule="nonzero"></path>
            <path d="M1.875,2.25 L16.875,2.25 L16.875,2.625 L1.875,2.625 L1.875,2.25 Z M1.875,3.5625 L16.875,3.5625 L16.875,3.9375 L1.875,3.9375 L1.875,3.5625 Z M1.875,5.0625 L16.875,5.0625 L16.875,5.4375 L1.875,5.4375 L1.875,5.0625 Z M1.875,6.375 L16.875,6.375 L16.875,6.75 L1.875,6.75 L1.875,6.375 Z M1.875,7.875 L16.875,7.875 L16.875,8.25 L1.875,8.25 L1.875,7.875 Z M1.875,9.1875 L16.875,9.1875 L16.875,9.5625 L1.875,9.5625 L1.875,9.1875 Z M1.875,10.6875 L16.875,10.6875 L16.875,11.0625 L1.875,11.0625 L1.875,10.6875 Z M1.875,12 L16.875,12 L16.875,12.375 L1.875,12.375 L1.875,12 Z M1.875,13.5 L16.875,13.5 L16.875,13.875 L1.875,13.875 L1.875,13.5 Z M1.875,15 L16.875,15 L16.875,15.375 L1.875,15.375 L1.875,15 Z M1.875,16.3125 L16.875,16.3125 L16.875,16.6875 L1.875,16.6875 L1.875,16.3125 Z M1.875,17.8125 L16.875,17.8125 L16.875,18.1875 L1.875,18.1875 L1.875,17.8125 Z" id="形状结合" fill-opacity="0.08" fill="#000000"></path>
        </g>
        <g id="Guide/128"></g>
        <g id="Group-2" stroke-width="1" fill-rule="evenodd" transform="translate(7.6875, 7.6875)">
            <circle id="椭圆形" fill="url(#linearGradient-6)" cx="4.3125" cy="4.3125" r="4.3125"></circle>
            <path d="M4.3125,-0.375 C6.90133476,-0.375 9,1.72366524 9,4.3125 C9,6.90133476 6.90133476,9 4.3125,9 C1.72366524,9 -0.375,6.90133476 -0.375,4.3125 C-0.375,1.72366524 1.72366524,-0.375 4.3125,-0.375 Z M4.3125,0 C1.93077202,0 0,1.93077202 0,4.3125 C0,6.69422798 1.93077202,8.625 4.3125,8.625 C6.69422798,8.625 8.625,6.69422798 8.625,4.3125 C8.625,1.93077202 6.69422798,0 4.3125,0 Z" id="椭圆形" fill="url(#linearGradient-7)" fill-rule="nonzero"></path>
            <path d="M3.1875,4.505859 L3.1875,4.787109 C3.1875,4.955079 3.21874972,5.11230375 3.28125,5.25878925 C3.34375028,5.405274 3.4306635,5.5341795 3.54199215,5.645508 C3.65332088,5.7568365 3.782226,5.8437495 3.92871075,5.90625 C4.07519625,5.9687505 4.232421,6 4.400391,6 C4.56836025,6 4.7265615,5.9687505 4.875,5.90625 C5.0234385,5.8437495 5.15331975,5.7568365 5.26464825,5.645508 C5.37597675,5.5341795 5.463867,5.405274 5.5283205,5.25878925 C5.592774,5.11230375 5.625,4.955079 5.625,4.787109 L5.625,4.505859 L5.8125,4.505859 L5.8125,4.787109 C5.8125,4.96679775 5.780274,5.13574125 5.7158205,5.2939455 C5.651367,5.452149 5.56347675,5.5927725 5.45214825,5.7158205 C5.34081975,5.83886775 5.209962,5.940429 5.0595705,6.020508 C4.909179,6.10058625 4.7480475,6.15039075 4.5761715,6.1699215 L4.5761715,6.73242188 C4.857423,6.74804692 5.09374875,6.79492148 5.28515625,6.87304688 C5.47656375,6.95117228 5.572266,7.0332027 5.572266,7.11914063 C5.572266,7.12193082 5.5109822,7.1237245 5.3884135,7.12452169 L3.45338356,7.12452169 C3.3308149,7.1237245 3.26953125,7.12193082 3.26953125,7.11914063 C3.26953125,7.037109 3.35839755,6.95800823 3.53613285,6.8818359 C3.71386808,6.80566365 3.9355455,6.75585952 4.2011715,6.73242188 L4.2011715,6.1699215 C4.03320225,6.146484 3.8759775,6.09375075 3.72949215,6.01171875 C3.5830071,5.92968675 3.4560552,5.8281255 3.34863285,5.70703125 C3.24121043,5.585937 3.15625028,5.44629 3.09375,5.28808575 C3.03124969,5.12988225 3,4.96289175 3,4.787109 L3,4.505859 L3.1875,4.505859 Z M5.4375,4.505859 L5.4375,4.775391 C5.4375,5.0605485 5.33593875,5.30273325 5.1328125,5.5019535 C4.92968625,5.701173 4.6855485,5.80078125 4.400391,5.80078125 C4.11523275,5.80078125 3.873048,5.701173 3.67382813,5.5019535 C3.4746084,5.30273325 3.375,5.0605485 3.375,4.775391 L3.375,4.505859 L5.4375,4.505859 Z M4.400391,1.6875 C4.59434948,1.6875 4.76933037,1.73403504 4.92533628,1.8271063 L4.828125,1.828125 L4.828125,1.928125 L4.928125,1.928125 L4.92843324,1.82896152 C5.00063735,1.87239287 5.06876368,1.92582499 5.1328125,1.989258 C5.33593875,2.1904305 5.4375,2.4316395 5.4375,2.712891 L5.4375,3.5625 L4.6875,3.5625 L4.6875,3.75 L5.4375,3.75 L5.4375,3.9375 L4.6875,3.9375 L4.6875,4.125 L5.4375,4.125 L5.4375,4.32421875 L3.375,4.32421875 L3.375,4.125 L4.125,4.125 L4.125,3.9375 L3.375,3.9375 L3.375,3.75 L4.125,3.75 L4.125,3.5625 L3.375,3.5625 L3.375,2.712891 C3.375,2.4316395 3.4746084,2.1904305 3.67382813,1.989258 C3.873048,1.78808475 4.11523275,1.6875 4.400391,1.6875 Z" id="形状结合" fill="url(#linearGradient-8)"></path>
        </g>
    </g>
</svg>