<?xml version="1.0" encoding="UTF-8"?>
<svg width="24px" height="24px" viewBox="0 0 24 24" version="1.1" xmlns="http://www.w3.org/2000/svg" xmlns:xlink="http://www.w3.org/1999/xlink">
    <title>结束录音</title>
    <g id="语音记事本" stroke="none" stroke-width="1" fill="none" fill-rule="evenodd">
        <g id="画框" transform="translate(-103, -91)" fill-rule="nonzero">
            <g id="结束录音" transform="translate(103, 91)">
                <path d="M12,0 C18.627417,0 24,5.372583 24,12 C24,18.627417 18.627417,24 12,24 C5.372583,24 0,18.627417 0,12 C0,5.372583 5.372583,0 12,0 Z M12,1 C5.92486775,1 1,5.92486775 1,12 C1,18.0751322 5.92486775,23 12,23 C18.0751322,23 23,18.0751322 23,12 C23,5.92486775 18.0751322,1 12,1 Z" id="椭圆形" fill-opacity="0.7" fill="#000000"></path>
                <path d="M9.2819426,8 L14.7180574,8 C15.1638168,8 15.3254599,8.04641281 15.4884229,8.13356635 C15.6513858,8.2207199 15.7792801,8.34861419 15.8664336,8.51157715 C15.9535872,8.67454011 16,8.83618323 16,9.2819426 L16,14.7180574 C16,15.1638168 15.9535872,15.3254599 15.8664336,15.4884229 C15.7792801,15.6513858 15.6513858,15.7792801 15.4884229,15.8664336 C15.3254599,15.9535872 15.1638168,16 14.7180574,16 L9.2819426,16 C8.83618323,16 8.67454011,15.9535872 8.51157715,15.8664336 C8.34861419,15.7792801 8.2207199,15.6513858 8.13356635,15.4884229 C8.04641281,15.3254599 8,15.1638168 8,14.7180574 L8,9.2819426 C8,8.83618323 8.04641281,8.67454011 8.13356635,8.51157715 C8.2207199,8.34861419 8.34861419,8.2207199 8.51157715,8.13356635 C8.67454011,8.04641281 8.83618323,8 9.2819426,8 Z" id="矩形" fill="#FF0101"></path>
            </g>
        </g>
    </g>
</svg>