<?xml version="1.0" encoding="UTF-8"?>
<svg width="24px" height="24px" viewBox="0 0 24 24" version="1.1" xmlns="http://www.w3.org/2000/svg" xmlns:xlink="http://www.w3.org/1999/xlink">
    <title>插入图片</title>
    <g id="语音记事本" stroke="none" stroke-width="1" fill="none" fill-rule="evenodd">
        <g id="画框" transform="translate(-276, -14)" fill="#000000">
            <g id="插入图片" transform="translate(276, 14)">
                <rect id="DTK-/-Button-/ToolButton-/-Light-Normal" fill-opacity="0" x="0" y="0" width="24" height="24" rx="6"></rect>
                <g id="图标/单色图标/文件夹小图标/Images" transform="translate(4, 4)" fill-opacity="0.7" fill-rule="nonzero">
                    <path d="M12.9941413,2 C14.1019465,2 15,2.90195036 15,4.0085302 L15,11.9914698 C15,13.1007504 14.1029399,14 12.9941413,14 L3.00585866,14 C1.89805351,14 1,13.0980496 1,11.9914698 L1,4.0085302 C1,2.8992496 1.89706013,2 3.00585866,2 L12.9941413,2 Z M12.9941413,3 L3.00585866,3 C2.45006285,3 2,3.45081649 2,4.0085302 L2,11.9914698 C2,12.0421499 2.0037572,12.0919738 2.01100655,12.1406764 C2.64094593,11.5516969 3.50675426,10.7415532 4.60984669,9.7093809 C4.86246629,9.4579619 5.37219356,9.42797203 5.67951856,9.64644661 L7.29220846,11.4999975 L9.52036249,8.2226499 C9.80677291,7.91724 10.4430388,7.92800333 10.7086904,8.24275212 C12.0929313,9.72213544 13.190395,10.8950306 14.0010815,11.7614375 L14,4.0085302 C14,3.4527972 13.5482247,3 12.9941413,3 Z M4.5,4 C5.32842712,4 6,4.67157288 6,5.5 C6,6.32842712 5.32842712,7 4.5,7 C3.67157288,7 3,6.32842712 3,5.5 C3,4.67157288 3.67157288,4 4.5,4 Z" id="形状结合"></path>
                </g>
            </g>
        </g>
    </g>
</svg>