<?xml version="1.0" encoding="UTF-8"?>
<svg width="24px" height="24px" viewBox="0 0 24 24" version="1.1" xmlns="http://www.w3.org/2000/svg" xmlns:xlink="http://www.w3.org/1999/xlink">
    <title>录音</title>
    <g id="语音记事本" stroke="none" stroke-width="1" fill="none" fill-rule="evenodd" fill-opacity="0.7">
        <g id="画框" transform="translate(-111, -15)" fill="#000000">
            <g id="录音" transform="translate(107, 11)">
                <path d="M12.975593,23 L12.975593,22 L15.475,22 L15.4752928,19.9728375 C13.090138,19.7121746 11.2316054,17.6064502 11,15.0004879 L12.0046548,15.0009953 C12.2437429,17.254049 13.9303792,19 15.9755,19 C18.0206208,19 19.7072571,17.254049 19.9463452,15.0009953 L20.951,15.0004879 C20.7193946,17.6064502 18.860862,19.7121746 16.4757072,19.9728375 L16.475,22 L18.975407,22 L18.975407,23 L12.975593,23 Z M15.9755,9 C17.6323029,9 18.975407,10.3431041 18.975407,11.999907 L18.975407,15.000093 C18.975407,16.6568959 17.6323029,18 15.9755,18 C14.3186971,18 12.975593,16.6568959 12.975593,15.000093 L12.975593,11.999907 C12.975593,10.3431041 14.3186971,9 15.9755,9 Z" id="形状结合" fill-rule="nonzero"></path>
            </g>
        </g>
    </g>
</svg>