<?xml version="1.0" encoding="UTF-8"?>
<svg width="24px" height="24px" viewBox="0 0 24 24" version="1.1" xmlns="http://www.w3.org/2000/svg" xmlns:xlink="http://www.w3.org/1999/xlink">
    <title>搜索</title>
    <g id="语音记事本" stroke="none" stroke-width="1" fill="none" fill-rule="evenodd">
        <g id="画框" transform="translate(-321, -14)" fill="#000000">
            <g id="搜索" transform="translate(321, 14)">
                <rect id="DTK-/-Button-/ToolButton-/-Light-Normal" fill-opacity="0" x="0" y="0" width="24" height="24" rx="6"></rect>
                <g id="ICON" transform="translate(4, 4)" fill-opacity="0.7" fill-rule="nonzero">
                    <path d="M7,1 C10.3137085,1 13,3.6862915 13,7 C13,8.38645854 12.5297397,9.6630819 11.7400213,10.6790679 L15.0303301,13.9696699 C15.3232233,14.2625631 15.3232233,14.7374369 15.0303301,15.0303301 C14.7640635,15.2965966 14.3473998,15.3208027 14.0537883,15.1029482 L13.9696699,15.0303301 L10.6790679,11.7400213 C9.6630819,12.5297397 8.38645854,13 7,13 C3.6862915,13 1,10.3137085 1,7 C1,3.6862915 3.6862915,1 7,1 Z M7,2.3 C5.70213084,2.3 4.52713084,2.82606542 3.67659813,3.67659813 C2.82606542,4.52713084 2.3,5.70213084 2.3,7 C2.3,8.29786916 2.82606542,9.47286916 3.67659813,10.3234019 C4.52713084,11.1739346 5.70213084,11.7 7,11.7 C8.29786916,11.7 9.47286916,11.1739346 10.3234019,10.3234019 C11.1739346,9.47286916 11.7,8.29786916 11.7,7 C11.7,5.70213084 11.1739346,4.52713084 10.3234019,3.67659813 C9.47286916,2.82606542 8.29786916,2.3 7,2.3 Z" id="形状结合"></path>
                </g>
            </g>
        </g>
    </g>
</svg>