<?xml version="1.0" encoding="UTF-8"?>
<svg width="24px" height="24px" viewBox="0 0 24 24" version="1.1" xmlns="http://www.w3.org/2000/svg" xmlns:xlink="http://www.w3.org/1999/xlink">
    <title>侧边栏</title>
    <g id="语音记事本" stroke="none" stroke-width="1" fill="none" fill-rule="evenodd">
        <g id="画框" transform="translate(-19, -15)" fill="#000000">
            <g id="侧边栏" transform="translate(19, 15)">
                <rect id="DTK-/-Button-/ToolButton-/-Light-Normal" fill-opacity="0" x="0" y="0" width="24" height="24" rx="6"></rect>
                <g id="ICON" transform="translate(4, 4)" fill-opacity="0.7" fill-rule="nonzero">
                    <path d="M12.4361148,2 C13.3276335,2 13.6509198,2.09282561 13.9768457,2.2671327 C14.3027716,2.4414398 14.5585602,2.69722837 14.7328673,3.0231543 C14.9071744,3.34908022 15,3.67236646 15,4.5638852 L15,11.4361148 C15,12.3276335 14.9071744,12.6509198 14.7328673,12.9768457 C14.5585602,13.3027716 14.3027716,13.5585602 13.9768457,13.7328673 C13.6509198,13.9071744 13.3276335,14 12.4361148,14 L3.5638852,14 C2.67236646,14 2.34908022,13.9071744 2.0231543,13.7328673 C1.69722837,13.5585602 1.4414398,13.3027716 1.2671327,12.9768457 C1.09282561,12.6509198 1,12.3276335 1,11.4361148 L1,4.5638852 C1,3.67236646 1.09282561,3.34908022 1.2671327,3.0231543 C1.4414398,2.69722837 1.69722837,2.4414398 2.0231543,2.2671327 C2.34908022,2.09282561 2.67236646,2 3.5638852,2 L12.4361148,2 Z M12.6055565,3.00098918 L6,3 L6,13 L12.4361148,13 C13.0979667,13 13.2995193,12.9610784 13.5052468,12.8510541 C13.6569043,12.7699468 13.7699468,12.6569043 13.8510541,12.5052468 C13.9510762,12.3182218 13.9923357,12.1346471 13.9990108,11.6055565 L14,4.5638852 C14,3.90203328 13.9610784,3.70048072 13.8510541,3.49475316 C13.7699468,3.3430957 13.6569043,3.2300532 13.5052468,3.1489459 C13.3182218,3.0489238 13.1346471,3.00766428 12.6055565,3.00098918 Z" id="形状结合"></path>
                </g>
            </g>
        </g>
    </g>
</svg>