<?xml version="1.0" encoding="UTF-8"?>
<svg width="44px" height="44px" viewBox="0 0 44 44" version="1.1" xmlns="http://www.w3.org/2000/svg" xmlns:xlink="http://www.w3.org/1999/xlink">
    <!-- Generator: Sketch 56.2 (81672) - https://sketch.com -->
    <title>more_focus_dark</title>
    <desc>Created with Sketch.</desc>
    <defs>
        <linearGradient x1="50%" y1="0%" x2="50%" y2="95.6533653%" id="linearGradient-1">
            <stop stop-color="#484848" offset="0%"></stop>
            <stop stop-color="#414141" offset="100%"></stop>
        </linearGradient>
        <circle id="path-2" cx="22" cy="22" r="15"></circle>
        <filter x="-23.3%" y="-16.7%" width="146.7%" height="146.7%" filterUnits="objectBoundingBox" id="filter-3">
            <feOffset dx="0" dy="2" in="SourceAlpha" result="shadowOffsetOuter1"></feOffset>
            <feGaussianBlur stdDeviation="2" in="shadowOffsetOuter1" result="shadowBlurOuter1"></feGaussianBlur>
            <feComposite in="shadowBlurOuter1" in2="SourceAlpha" operator="out" result="shadowBlurOuter1"></feComposite>
            <feColorMatrix values="0 0 0 0 0   0 0 0 0 0   0 0 0 0 0  0 0 0 0.05 0" type="matrix" in="shadowBlurOuter1"></feColorMatrix>
        </filter>
        <circle id="path-4" cx="22" cy="22" r="17"></circle>
        <filter x="-26.5%" y="-20.6%" width="152.9%" height="152.9%" filterUnits="objectBoundingBox" id="filter-5">
            <feMorphology radius="2" operator="dilate" in="SourceAlpha" result="shadowSpreadOuter1"></feMorphology>
            <feOffset dx="0" dy="2" in="shadowSpreadOuter1" result="shadowOffsetOuter1"></feOffset>
            <feGaussianBlur stdDeviation="2" in="shadowOffsetOuter1" result="shadowBlurOuter1"></feGaussianBlur>
            <feComposite in="shadowBlurOuter1" in2="SourceAlpha" operator="out" result="shadowBlurOuter1"></feComposite>
            <feColorMatrix values="0 0 0 0 0   0 0 0 0 0   0 0 0 0 0  0 0 0 0.05 0" type="matrix" in="shadowBlurOuter1"></feColorMatrix>
        </filter>
    </defs>
    <g id="页面-1" stroke="none" stroke-width="1" fill="none" fill-rule="evenodd">
        <g id="按钮状态" transform="translate(-765.000000, -732.000000)">
            <g id="more_normal" transform="translate(765.000000, 732.000000)">
                <g id="Oval">
                    <use fill="black" fill-opacity="1" filter="url(#filter-3)" xlink:href="#path-2"></use>
                    <use fill-opacity="0.08" fill="#000000" fill-rule="evenodd" xlink:href="#path-2"></use>
                    <circle stroke-opacity="0.03" stroke="#FFFFFF" stroke-width="1" stroke-linejoin="square" fill="url(#linearGradient-1)" fill-rule="evenodd" cx="22" cy="22" r="14.5"></circle>
                </g>
                <g id="椭圆形备份" transform="translate(22.000000, 22.000000) rotate(2.000000) translate(-22.000000, -22.000000) ">
                    <use fill="black" fill-opacity="1" filter="url(#filter-5)" xlink:href="#path-4"></use>
                    <circle stroke-opacity="0.5" stroke="#0059D2" stroke-width="2" fill-opacity="0" fill="#FFFFFF" fill-rule="evenodd" cx="22" cy="22" r="18"></circle>
                </g>
                <path d="M16,24 C14.8954305,24 14,23.1045695 14,22 C14,20.8954305 14.8954305,20 16,20 C17.1045695,20 18,20.8954305 18,22 C18,23.1045695 17.1045695,24 16,24 Z M22,24 C20.8954305,24 20,23.1045695 20,22 C20,20.8954305 20.8954305,20 22,20 C23.1045695,20 24,20.8954305 24,22 C24,23.1045695 23.1045695,24 22,24 Z M28,24 C26.8954305,24 26,23.1045695 26,22 C26,20.8954305 26.8954305,20 28,20 C29.1045695,20 30,20.8954305 30,22 C30,23.1045695 29.1045695,24 28,24 Z" id="Combined-Shape" fill="#C0C6D4"></path>
            </g>
        </g>
    </g>
</svg>