<?xml version="1.0" encoding="UTF-8"?>
<svg width="16px" height="16px" viewBox="0 0 16 16" version="1.1" xmlns="http://www.w3.org/2000/svg" xmlns:xlink="http://www.w3.org/1999/xlink">
    <title>D/bold</title>
    <g id="D/bold" stroke="none" stroke-width="1" fill="none" fill-rule="evenodd">
        <g id="ICON" transform="translate(2, 1)" fill="#000000" fill-rule="nonzero">
            <path d="M0,2 C0,0.8954305 0.8954305,0 2,0 L7,0 C9.209139,0 11,1.790861 11,4 C11,4.97998001 10.6475884,5.87764988 10.0625829,6.57319185 C11.2233892,7.27185069 12,8.54523176 12,10 C12,12.209139 10.209139,14 8,14 L2,14 C0.8954305,14 0,13.1045695 0,12 L0,2 Z M8,8 L2,8 L2,12 L8,12 C9.1045695,12 10,11.1045695 10,10 C10,8.9456382 9.18412221,8.08183488 8.14926234,8.00548574 L8,8 Z M7,2 L2,2 L2,6 L7,6 C8.0543618,6 8.91816512,5.18412221 8.99451426,4.14926234 L9,4 C9,2.8954305 8.1045695,2 7,2 Z" id="形状结合"></path>
        </g>
    </g>
</svg>