<?xml version="1.0" encoding="UTF-8"?>
<svg width="16px" height="16px" viewBox="0 0 16 16" version="1.1" xmlns="http://www.w3.org/2000/svg" xmlns:xlink="http://www.w3.org/1999/xlink">
    <title>D/bullet_number</title>
    <g id="D/bullet_number" stroke="none" stroke-width="1" fill="none" fill-rule="evenodd">
        <g id="DTK/按钮/工具按钮/IconButton-Light备份-5" fill="#000000" fill-rule="nonzero">
            <g id="ICON" transform="translate(1.4897, 0.752)">
                <path d="M6.51025391,1.24804688 L11.5102539,1.24804688 C12.0625387,1.24804688 12.5102539,1.69576213 12.5102539,2.24804688 C12.5102539,2.80033162 12.0625387,3.24804688 11.5102539,3.24804688 L6.51025391,3.24804688 C5.95796916,3.24804688 5.51025391,2.80033162 5.51025391,2.24804688 C5.51025391,1.69576213 5.95796916,1.24804688 6.51025391,1.24804688 Z M6.51025391,6.24804688 L11.5102539,6.24804688 C12.0625387,6.24804688 12.5102539,6.69576213 12.5102539,7.24804688 C12.5102539,7.80033162 12.0625387,8.24804688 11.5102539,8.24804688 L6.51025391,8.24804688 C5.95796916,8.24804688 5.51025391,7.80033162 5.51025391,7.24804688 C5.51025391,6.69576213 5.95796916,6.24804688 6.51025391,6.24804688 Z M6.51025391,11.2480469 L11.5102539,11.2480469 C12.0625387,11.2480469 12.5102539,11.6957621 12.5102539,12.2480469 C12.5102539,12.8003316 12.0625387,13.2480469 11.5102539,13.2480469 L6.51025391,13.2480469 C5.95796916,13.2480469 5.51025391,12.8003316 5.51025391,12.2480469 C5.51025391,11.6957621 5.95796916,11.2480469 6.51025391,11.2480469 Z M2.11230469,4.24804688 L2.11230469,0 L1.41796875,0 C1.41796875,0.037109375 1.40722656,0.09375 1.38574219,0.169921875 C1.34863281,0.296875 1.29394531,0.3984375 1.22167969,0.474609375 C1.11621094,0.5859375 0.979492187,0.66015625 0.811523438,0.697265625 C0.706054688,0.720703125 0.521484375,0.73828125 0.2578125,0.75 L0.2578125,0.75 L0.2578125,1.31835938 L1.25683594,1.31835938 L1.25683594,4.24804688 L2.11230469,4.24804688 Z M2.93847656,9.24804688 L2.93847656,8.51269531 L1.08398437,8.51269531 C1.13671875,8.42480469 1.20166016,8.34765625 1.27880859,8.28125 C1.35595703,8.21484375 1.49902344,8.10742188 1.70800781,7.95898438 L1.70800781,7.95898438 L2.04199219,7.72167969 C2.32324219,7.52246094 2.52539063,7.34179687 2.6484375,7.1796875 C2.8359375,6.93554687 2.9296875,6.65625 2.9296875,6.34179688 C2.9296875,5.93164062 2.796875,5.60205078 2.53125,5.35302734 C2.265625,5.10400391 1.90820313,4.97949219 1.45898438,4.97949219 C0.890625,4.97949219 0.495117187,5.19140625 0.272460938,5.61523438 C0.155273438,5.83789063 0.08984375,6.12988281 0.076171875,6.49121094 L0.076171875,6.49121094 L0.887695312,6.49121094 C0.897460937,6.25292969 0.928710937,6.07910156 0.981445313,5.96972656 C1.07324219,5.78027344 1.24609375,5.68554687 1.5,5.68554687 C1.68554687,5.68554687 1.828125,5.74511719 1.92773438,5.86425781 C2.02734375,5.98339844 2.07714844,6.1328125 2.07714844,6.3125 C2.07714844,6.53320312 1.99023438,6.73632813 1.81640625,6.921875 C1.703125,7.04101563 1.45410156,7.23828125 1.06933594,7.51367187 C0.625976563,7.83007813 0.344726563,8.12988281 0.225585937,8.41308594 C0.102539062,8.66503906 0.037109375,8.94335938 0.029296875,9.24804688 L0.029296875,9.24804688 L2.93847656,9.24804688 Z M1.45898437,14.3535156 C1.94726563,14.3535156 2.31591797,14.2172852 2.56494141,13.9448242 C2.81396484,13.6723633 2.93847656,13.3564453 2.93847656,12.9970703 C2.93847656,12.6552734 2.83203125,12.3857422 2.61914063,12.1884766 C2.4765625,12.0576172 2.3671875,11.9921875 2.29101563,11.9921875 C2.39257813,11.953125 2.49023438,11.8798828 2.58398437,11.7724609 C2.73242188,11.6005859 2.80664063,11.3896484 2.80664063,11.1396484 C2.80664063,10.7861328 2.68212891,10.5043945 2.43310547,10.2944336 C2.18408203,10.0844727 1.85644531,9.97949219 1.45019531,9.97949219 C1.23144531,9.97949219 1.046875,10.0058594 0.896484375,10.0585938 C0.74609375,10.1113281 0.616210937,10.1875 0.506835937,10.2871094 C0.360351562,10.4277344 0.252929687,10.5810547 0.184570313,10.7470703 C0.120117188,10.9365234 0.083984375,11.1367187 0.076171875,11.3476563 L0.076171875,11.3476563 L0.85546875,11.3476563 C0.8515625,11.1386719 0.896484375,10.9716797 0.990234375,10.8466797 C1.08203125,10.7216797 1.2265625,10.6591797 1.42382812,10.6591797 C1.59570313,10.6591797 1.72900391,10.7099609 1.82373047,10.8115234 C1.91845703,10.9130859 1.96582031,11.0449219 1.96582031,11.2070312 C1.96582031,11.4570312 1.87304688,11.6230469 1.6875,11.7050781 C1.58007813,11.7539062 1.390625,11.7802734 1.11914062,11.7841797 L1.11914062,11.7841797 L1.11914062,12.3818359 C1.39648437,12.3818359 1.59960938,12.4082031 1.72851562,12.4609375 C1.95507813,12.5546875 2.06835938,12.7412109 2.06835938,13.0205078 C2.06835938,13.2314453 2.00732422,13.3930664 1.88525391,13.5053711 C1.76318359,13.6176758 1.62011719,13.6738281 1.45605469,13.6738281 C1.18847656,13.6738281 1.00390625,13.5712891 0.90234375,13.3662109 C0.84765625,13.2548828 0.8203125,13.1142578 0.8203125,12.9443359 L0.8203125,12.9443359 L0,12.9443359 C0.013671875,13.2822266 0.08203125,13.5556641 0.205078125,13.7646484 C0.439453125,14.1572266 0.857421875,14.3535156 1.45898437,14.3535156 Z" id="形状结合"></path>
            </g>
        </g>
    </g>
</svg>