<?xml version="1.0" encoding="UTF-8"?>
<svg width="16px" height="16px" viewBox="0 0 16 16" version="1.1" xmlns="http://www.w3.org/2000/svg" xmlns:xlink="http://www.w3.org/1999/xlink">
    <title>D/bullet_dot</title>
    <g id="D/bullet_dot" stroke="none" stroke-width="1" fill="none" fill-rule="evenodd">
        <g id="图标/单色图标/文本编辑/Bullet-Dot" transform="translate(2, 1.5)" fill="#000000" fill-rule="nonzero">
            <path d="M1.5,3 C2.32842712,3 3,2.32842712 3,1.5 C3,0.671572875 2.32842712,0 1.5,0 C0.671572875,0 0,0.671572875 0,1.5 C0,2.32842712 0.671572875,3 1.5,3 Z M1.5,8 C2.32842712,8 3,7.32842712 3,6.5 C3,5.67157288 2.32842712,5 1.5,5 C0.671572875,5 0,5.67157288 0,6.5 C0,7.32842712 0.671572875,8 1.5,8 Z M6,0.5 L11,0.5 C11.5522847,0.5 12,0.94771525 12,1.5 C12,2.05228475 11.5522847,2.5 11,2.5 L6,2.5 C5.44771525,2.5 5,2.05228475 5,1.5 C5,0.94771525 5.44771525,0.5 6,0.5 Z M6,5.5 L11,5.5 C11.5522847,5.5 12,5.94771525 12,6.5 C12,7.05228475 11.5522847,7.5 11,7.5 L6,7.5 C5.44771525,7.5 5,7.05228475 5,6.5 C5,5.94771525 5.44771525,5.5 6,5.5 Z M1.5,13 C2.32842712,13 3,12.3284271 3,11.5 C3,10.6715729 2.32842712,10 1.5,10 C0.671572875,10 0,10.6715729 0,11.5 C0,12.3284271 0.671572875,13 1.5,13 Z M6,10.5 L11,10.5 C11.5522847,10.5 12,10.9477153 12,11.5 C12,12.0522847 11.5522847,12.5 11,12.5 L6,12.5 C5.44771525,12.5 5,12.0522847 5,11.5 C5,10.9477153 5.44771525,10.5 6,10.5 Z" id="形状结合"></path>
        </g>
    </g>
</svg>