<?xml version="1.0" encoding="UTF-8"?>
<svg width="16px" height="16px" viewBox="0 0 16 16" version="1.1" xmlns="http://www.w3.org/2000/svg" xmlns:xlink="http://www.w3.org/1999/xlink">
    <title>D/Italic</title>
    <g id="D/Italic" stroke="none" stroke-width="1" fill="none" fill-rule="evenodd">
        <g id="DTK/按钮/工具按钮/IconButton-Light备份" fill="#000000" fill-rule="nonzero">
            <g id="ICON" transform="translate(3, 1)">
                <path d="M0.5,14 C0.223857625,14 3.38176876e-17,13.7761424 0,13.5 C-3.38176876e-17,13.2238576 0.223857625,13 0.5,13 L2.286,13 L5.714,1 L4.5,1 C4.22385763,1 4,0.776142375 4,0.5 C4,0.223857625 4.22385763,5.07265313e-17 4.5,0 L9.5,0 C9.77614237,-5.07265313e-17 10,0.223857625 10,0.5 C10,0.776142375 9.77614237,1 9.5,1 L7.714,1 L4.286,13 L5.5,13 C5.77614237,13 6,13.2238576 6,13.5 C6,13.7761424 5.77614237,14 5.5,14 L0.5,14 Z" id="形状结合"></path>
            </g>
        </g>
    </g>
</svg>