<?xml version="1.0" encoding="UTF-8"?>
<svg width="16px" height="17px" viewBox="0 0 16 17" version="1.1" xmlns="http://www.w3.org/2000/svg" xmlns:xlink="http://www.w3.org/1999/xlink">
    <title>D/marker</title>
    <g id="D/marker" stroke="none" stroke-width="1" fill="none" fill-rule="evenodd">
        <g id="DTK/按钮/组合按钮/选项按钮/Light备份" transform="translate(0.4167, 0.4289)" fill="#000000" fill-rule="nonzero">
            <g id="ICON">
                <path d="M4.21964501,1.35905154 C4.265543,0.910029331 4.6437215,0.568536791 5.0950834,0.568536791 L9.05927307,0.568536791 C9.51063497,0.568536791 9.88881347,0.910029331 9.93471147,1.35905154 L10.5771782,7.64433369 L9.85390691,9.41328291 L4.30044956,9.41328291 L3.57717824,7.64433369 Z M5.32717824,10.2977575 L8.82717824,10.2977575 L8.82717824,12.2658996 C8.82717824,12.668868 8.55346925,13.0203495 8.16278262,13.1190788 L6.42278262,13.558789 C5.95158476,13.6778641 5.47307405,13.3924121 5.35399904,12.9212142 C5.33618715,12.8507299 5.32717824,12.7783099 5.32717824,12.7056098 L5.32717824,10.2977575 L5.32717824,10.2977575 Z" id="形状结合" transform="translate(7.0772, 7.0772) rotate(45) translate(-7.0772, -7.0772)"></path>
            </g>
        </g>
    </g>
</svg>