<?xml version="1.0" encoding="UTF-8"?>
<svg width="16px" height="16px" viewBox="0 0 16 16" version="1.1" xmlns="http://www.w3.org/2000/svg" xmlns:xlink="http://www.w3.org/1999/xlink">
    <title>D/Strikethrough</title>
    <g id="D/Strikethrough" stroke="none" stroke-width="1" fill="none" fill-rule="evenodd">
        <g id="图标/单色图标/文本编辑/Strikethrough" transform="translate(2, 1)" fill="#000000" fill-rule="nonzero">
            <path d="M5.89519811,1.11022302e-16 C7.46123585,1.11022302e-16 8.68765094,0.320754717 9.5744434,1 C10.3172211,1.5496555 10.8026772,2.33323973 11.0400208,3.35996181 L11.0539301,3.4408064 L11.0585866,3.52270655 C11.0585866,3.92177723 10.7350758,4.24528794 10.3360052,4.24528794 L9.89269222,4.24528241 C9.46936668,4.24574916 9.09161153,3.97961247 8.94956602,3.58082957 C8.93993483,3.5555508 8.93120269,3.53207045 8.92276734,3.51060303 C8.72533305,3.00814537 8.44988579,2.61992516 8.08387736,2.35849057 C7.55557547,1.96226415 6.80085849,1.77358491 5.78199057,1.77358491 C4.89519811,1.77358491 4.21595283,1.90566038 3.74425472,2.16981132 C3.15934906,2.47169811 2.87633019,2.96226415 2.87633019,3.64150943 C2.87633019,4.24528302 3.19708491,4.71698113 3.87633019,5.0754717 C4.17821698,5.24528302 4.95180189,5.52830189 6.21595283,5.90566038 C7.63357391,6.34866697 8.66980643,6.71077295 9.30655996,7.00102353 L11.5,7 C11.7761424,7 12,7.22385763 12,7.5 C12,7.77614237 11.7761424,8 11.5,8 L10.6936911,7.99957581 C11.2160586,8.58646048 11.4801038,9.29538608 11.4801038,10.1320755 C11.4801038,11.3396226 11.0084057,12.2830189 10.0650094,12.9811321 C9.12161321,13.6603774 7.80085849,14 6.10274528,14 C4.46123585,14 3.17821698,13.6603774 2.25368868,13.0188679 C1.31818141,12.3529136 0.742448275,11.36716 0.515291371,10.0616072 L0.507917863,10.0048552 L0.505453938,9.9476792 C0.505453938,9.58061811 0.803015743,9.28305631 1.17007683,9.28305631 L1.65330542,9.28302029 C2.10068633,9.28377462 2.49313272,9.58158787 2.61426603,10.0122582 L2.62005385,10.0326759 C2.81845962,10.71187 3.14287878,11.2282133 3.59331132,11.5660377 C4.14048113,11.9811321 4.97066981,12.1886792 6.10274528,12.1886792 C7.12161321,12.1886792 7.93293396,12 8.53670755,11.6603774 C9.14048113,11.3207547 9.44236792,10.8490566 9.44236792,10.245283 C9.44236792,9.49056604 9.00840566,8.90566038 8.15934906,8.47169811 C7.96749402,8.3757706 7.53940412,8.21887924 6.87023638,8.00102405 L0.5,8 C0.223857625,8 3.38176876e-17,7.77614237 0,7.5 C-3.38176876e-17,7.22385763 0.223857625,7 0.5,7 L3.76142424,7.00018763 C3.08695352,6.76645065 2.63099381,6.58659182 2.38576415,6.45283019 C1.3480283,5.83018868 0.83859434,4.9245283 0.83859434,3.75471698 C0.83859434,2.56603774 1.32916038,1.64150943 2.32916038,0.962264151 C3.2725566,0.320754717 4.46123585,1.11022302e-16 5.89519811,1.11022302e-16 Z" id="形状结合"></path>
        </g>
    </g>
</svg>