<?xml version="1.0" encoding="UTF-8"?>
<svg width="16px" height="16px" viewBox="0 0 16 16" version="1.1" xmlns="http://www.w3.org/2000/svg" xmlns:xlink="http://www.w3.org/1999/xlink">
    <title>D/underline</title>
    <g id="D/underline" stroke="none" stroke-width="1" fill="none" fill-rule="evenodd">
        <g id="DTK/按钮/工具按钮/IconButton-Light备份-2" fill="#000000" fill-rule="nonzero">
            <g id="ICON" transform="translate(2, 1)">
                <path d="M11.5,13 C11.7761424,13 12,13.2238576 12,13.5 C12,13.7761424 11.7761424,14 11.5,14 L0.5,14 C0.223857625,14 0,13.7761424 0,13.5 C0,13.2238576 0.223857625,13 0.5,13 L11.5,13 Z M3,1 L3,7 L3,7 C3,8.59768088 4.24891996,9.90366088 5.82372721,9.99490731 L6,10 C7.59768088,10 8.90366088,8.75108004 8.99490731,7.17627279 L9,7 L9,1 C9,0.44771525 9.44771525,1.01453063e-16 10,0 C10.5522847,-1.01453063e-16 11,0.44771525 11,1 L11,7 L11,7 C11,9.76142375 8.76142375,12 6,12 C3.23857625,12 1,9.76142375 1,7 L1,1 C1,0.44771525 1.44771525,1.01453063e-16 2,0 C2.55228475,-1.01453063e-16 3,0.44771525 3,1 Z" id="形状"></path>
            </g>
        </g>
    </g>
</svg>