<?xml version="1.0" encoding="UTF-8"?>
<svg width="60px" height="60px" viewBox="0 0 60 60" version="1.1" xmlns="http://www.w3.org/2000/svg" xmlns:xlink="http://www.w3.org/1999/xlink">
    <!-- Generator: Sketch 56.2 (81672) - https://sketch.com -->
    <title>pause_red_focus</title>
    <desc>Created with Sketch.</desc>
    <defs>
        <linearGradient x1="50%" y1="0%" x2="50%" y2="100%" id="linearGradient-1">
            <stop stop-color="#FD5E5E" offset="0%"></stop>
            <stop stop-color="#ED5656" offset="100%"></stop>
        </linearGradient>
        <circle id="path-2" cx="30" cy="30" r="20"></circle>
        <filter x="-27.5%" y="-17.5%" width="155.0%" height="155.0%" filterUnits="objectBoundingBox" id="filter-3">
            <feOffset dx="0" dy="4" in="SourceAlpha" result="shadowOffsetOuter1"></feOffset>
            <feGaussianBlur stdDeviation="3" in="shadowOffsetOuter1" result="shadowBlurOuter1"></feGaussianBlur>
            <feColorMatrix values="0 0 0 0 0.97254902   0 0 0 0 0.17254902   0 0 0 0 0.277440324  0 0 0 0.4 0" type="matrix" in="shadowBlurOuter1"></feColorMatrix>
        </filter>
        <circle id="path-4" cx="30" cy="30" r="22"></circle>
        <filter x="-20.5%" y="-15.9%" width="140.9%" height="140.9%" filterUnits="objectBoundingBox" id="filter-5">
            <feMorphology radius="2" operator="dilate" in="SourceAlpha" result="shadowSpreadOuter1"></feMorphology>
            <feOffset dx="0" dy="2" in="shadowSpreadOuter1" result="shadowOffsetOuter1"></feOffset>
            <feGaussianBlur stdDeviation="2" in="shadowOffsetOuter1" result="shadowBlurOuter1"></feGaussianBlur>
            <feComposite in="shadowBlurOuter1" in2="SourceAlpha" operator="out" result="shadowBlurOuter1"></feComposite>
            <feColorMatrix values="0 0 0 0 0   0 0 0 0 0   0 0 0 0 0  0 0 0 0.05 0" type="matrix" in="shadowBlurOuter1"></feColorMatrix>
        </filter>
    </defs>
    <g id="页面-1" stroke="none" stroke-width="1" fill="none" fill-rule="evenodd">
        <g id="按钮状态" transform="translate(-480.000000, -719.000000)">
            <g id="pause_red_normal" transform="translate(480.000000, 719.000000)">
                <g id="Oval">
                    <use fill="black" fill-opacity="1" filter="url(#filter-3)" xlink:href="#path-2"></use>
                    <use fill="url(#linearGradient-1)" fill-rule="evenodd" xlink:href="#path-2"></use>
                </g>
                <path d="M27,25 C28.1045695,25 29,25.8954305 29,27 L29,33 C29,34.1045695 28.1045695,35 27,35 C25.8954305,35 25,34.1045695 25,33 L25,27 C25,25.8954305 25.8954305,25 27,25 Z M33,25 C34.1045695,25 35,25.8954305 35,27 L35,33 C35,34.1045695 34.1045695,35 33,35 C31.8954305,35 31,34.1045695 31,33 L31,27 C31,25.8954305 31.8954305,25 33,25 Z" id="Combined-Shape" fill="#FFFFFF"></path>
                <g id="椭圆形备份" transform="translate(30.000000, 30.000000) rotate(2.000000) translate(-30.000000, -30.000000) ">
                    <use fill="black" fill-opacity="1" filter="url(#filter-5)" xlink:href="#path-4"></use>
                    <circle stroke="#0081FF" stroke-width="2" fill-opacity="0" fill="#FFFFFF" fill-rule="evenodd" cx="30" cy="30" r="23"></circle>
                </g>
            </g>
        </g>
    </g>
</svg>