<?xml version="1.0" encoding="UTF-8"?>
<svg width="24px" height="24px" viewBox="0 0 24 24" version="1.1" xmlns="http://www.w3.org/2000/svg" xmlns:xlink="http://www.w3.org/1999/xlink">
    <title>D/audio_file_playing_play/Normal</title>
    <g id="D/audio_file_playing_play/Normal" stroke="none" stroke-width="1" fill="none" fill-rule="evenodd">
        <g id="ICON/audio/file/normal" fill="#000000" fill-rule="nonzero">
            <path d="M12,0 C18.627417,0 24,5.372583 24,12 C24,18.627417 18.627417,24 12,24 C5.372583,24 0,18.627417 0,12 C0,5.372583 5.372583,0 12,0 Z M12,1 C5.92486775,1 1,5.92486775 1,12 C1,18.0751322 5.92486775,23 12,23 C18.0751322,23 23,18.0751322 23,12 C23,5.92486775 18.0751322,1 12,1 Z M9,8.64330786 C9,7.19749521 9.8732078,6.58879434 10.9503642,7.29356059 L16.1934598,10.7240344 C17.2670757,11.4264842 17.2706162,12.5714525 16.1934598,13.2762188 L10.9503642,16.7066926 C9.87674829,17.4091424 9,16.8071564 9,15.3569453 Z" id="形状结合"></path>
        </g>
    </g>
</svg>