<?xml version="1.0" encoding="UTF-8"?>
<svg width="16px" height="16px" viewBox="0 0 16 16" version="1.1" xmlns="http://www.w3.org/2000/svg" xmlns:xlink="http://www.w3.org/1999/xlink">
    <title>D/voice_to_text/Normal</title>
    <g id="D/voice_to_text/Normal" stroke="none" stroke-width="1" fill="none" fill-rule="evenodd">
        <g id="ICON-/-text" transform="translate(1, 1)" fill="#000000" fill-rule="nonzero">
            <path d="M1,9 L1,11.001 C1,12.1055695 1.8954305,13.001 3,13.001 L5,13 L5,14 L3,14.001 C1.34314575,14.001 0,12.6578542 0,11.001 L0,9 L1,9 Z M10.5001265,6 C10.8223513,6 11.1128819,6.19206146 11.2290941,6.4865557 L13.9680048,13.3854033 C14.0868582,13.6824584 13.8597161,14 13.5322089,14 C13.3367611,14 13.1624428,13.8822023 13.0937719,13.7029449 L12.3463161,12.0005546 L8.64337223,12.0005546 L7.89591637,13.7080666 C7.82724551,13.8822023 7.65556837,14 7.46276175,14 C7.13789577,14 6.9133949,13.6850192 7.03224829,13.390525 C7.0296071,13.3930858 9.77115897,6.4865557 9.77115899,6.4865557 C9.8873712,6.19462227 10.1779018,6 10.5001265,6 Z M10.5318208,6.98591549 L10.4869206,6.98591549 L8.93654396,11.0017676 L12.0584267,11.0017676 L10.5318208,6.98591549 Z M4.5,-9.99200722e-16 C4.77614237,-1.04992725e-15 5,0.223857625 5,0.5 L5,5.5 C5,5.77614237 4.77614237,6 4.5,6 C4.22385763,6 4,5.77614237 4,5.5 L4,0.5 C4,0.223857625 4.22385763,-9.48474191e-16 4.5,-9.99200722e-16 Z M11,0.001 C12.6568542,0.001 14,1.34414575 14,3.001 L14,5 L13,5 L13,3.001 C13,1.8964305 12.1045695,1.001 11,1.001 L9,1 L9,-9.99200722e-16 L11,0.001 Z M2.5,1 C2.77614237,1 3,1.22385763 3,1.5 L3,4.5 C3,4.77614237 2.77614237,5 2.5,5 C2.22385763,5 2,4.77614237 2,4.5 L2,1.5 C2,1.22385763 2.22385763,1 2.5,1 Z M6.5,1 C6.77614237,1 7,1.22385763 7,1.5 L7,4.5 C7,4.77614237 6.77614237,5 6.5,5 C6.22385763,5 6,4.77614237 6,4.5 L6,1.5 C6,1.22385763 6.22385763,1 6.5,1 Z M0.5,2 C0.776142375,2 1,2.22385763 1,2.5 L1,3.5 C1,3.77614237 0.776142375,4 0.5,4 C0.223857625,4 3.38176876e-17,3.77614237 0,3.5 L0,2.5 C-3.38176876e-17,2.22385763 0.223857625,2 0.5,2 Z M8.5,2 C8.77614237,2 9,2.22385763 9,2.5 L9,3.5 C9,3.77614237 8.77614237,4 8.5,4 C8.22385763,4 8,3.77614237 8,3.5 L8,2.5 C8,2.22385763 8.22385763,2 8.5,2 Z" id="形状结合"></path>
        </g>
    </g>
</svg>