<?xml version="1.0" encoding="UTF-8"?>
<svg width="24px" height="24px" viewBox="0 0 24 24" version="1.1" xmlns="http://www.w3.org/2000/svg" xmlns:xlink="http://www.w3.org/1999/xlink">
    <title>D/audio_file_play/Pressed/Dark</title>
    <defs>
        <linearGradient x1="50%" y1="-1.92762473e-12%" x2="50%" y2="99.2378715%" id="linearGradient-1">
            <stop stop-color="#A9A9A9" stop-opacity="0.6" offset="0%"></stop>
            <stop stop-color="#CACACA" stop-opacity="0.5" offset="100%"></stop>
        </linearGradient>
        <path d="M12,0 C18.627417,0 24,5.372583 24,12 C24,18.627417 18.627417,24 12,24 C5.372583,24 0,18.627417 0,12 C0,5.372583 5.372583,0 12,0 Z" id="path-2"></path>
        <filter x="-6.2%" y="-6.2%" width="112.5%" height="112.5%" filterUnits="objectBoundingBox" id="filter-3">
            <feOffset dx="0" dy="1" in="SourceAlpha" result="shadowOffsetOuter1"></feOffset>
            <feColorMatrix values="0 0 0 0 0   0 0 0 0 0   0 0 0 0 0  0 0 0 0.08 0" type="matrix" in="shadowOffsetOuter1" result="shadowMatrixOuter1"></feColorMatrix>
            <feMorphology radius="0.5" operator="dilate" in="SourceAlpha" result="shadowSpreadOuter2"></feMorphology>
            <feOffset dx="0" dy="0" in="shadowSpreadOuter2" result="shadowOffsetOuter2"></feOffset>
            <feColorMatrix values="0 0 0 0 0   0 0 0 0 0   0 0 0 0 0  0 0 0 0.15 0" type="matrix" in="shadowOffsetOuter2" result="shadowMatrixOuter2"></feColorMatrix>
            <feMerge>
                <feMergeNode in="shadowMatrixOuter1"></feMergeNode>
                <feMergeNode in="shadowMatrixOuter2"></feMergeNode>
            </feMerge>
        </filter>
    </defs>
    <g id="D/audio_file_play/Pressed/Dark" stroke="none" stroke-width="1" fill="none" fill-rule="evenodd">
        <g id="ICON/audio/file/normal">
            <g id="路径">
                <use fill="black" fill-opacity="1" filter="url(#filter-3)" xlink:href="#path-2"></use>
                <use fill="url(#linearGradient-1)" fill-rule="evenodd" xlink:href="#path-2"></use>
            </g>
            <path d="M10.9503642,7.29356059 C9.8732078,6.58879434 9,7.19749521 9,8.64330786 L9,15.3569453 C9,16.8071564 9.87674829,17.4091424 10.9503642,16.7066926 L16.1934598,13.2762188 C17.2706162,12.5714525 17.2670757,11.4264842 16.1934598,10.7240344 L10.9503642,7.29356059 Z" id="play" fill="#1167FC"></path>
        </g>
    </g>
</svg>